<svg xmlns="http://www.w3.org/2000/svg" viewBox="0 0 256 256">
  <defs>
    <filter id="glow" x="-60%" y="-60%" width="220%" height="220%">
      <feGaussianBlur stdDeviation="7" result="blur"/>
      <feColorMatrix in="blur" type="matrix" values="0 0 0 0 1.0 0 0 0 0 0.6901960784313725 0 0 0 0 0.12549019607843137 0 0 0 .85 0"/>
      <feMerge><feMergeNode/><feMergeNode in="SourceGraphic"/></feMerge>
    </filter>
  </defs>
  <rect width="256" height="256" rx="128" fill="#07142a" opacity=".92"/>
  <circle cx="128" cy="128" r="104" fill="none" stroke="#ffb020" stroke-width="3" opacity=".75" filter="url(#glow)"/>
  <g fill="none" stroke="#ffb020" stroke-width="13" stroke-linecap="round" stroke-linejoin="round" filter="url(#glow)">
<path d="M128 72 C98 58 70 78 74 112 C52 124 58 160 86 164 C90 192 126 198 128 166"/><path d="M128 72 C158 58 186 78 182 112 C204 124 198 160 170 164 C166 192 130 198 128 166"/><path d="M128 74 V178"/><path d="M96 112 C112 110 116 122 110 134"/><path d="M160 112 C144 110 140 122 146 134"/>
  </g>
</svg>
